<?xml version="1.0" encoding="UTF-8" standalone="no"?>
<!-- Created with Inkscape (http://www.inkscape.org/) -->

<svg
   width="210mm"
   height="297mm"
   viewBox="0 0 210 297"
   version="1.1"
   id="svg5"
   inkscape:version="1.2.2 (b0a8486541, 2022-12-01)"
   sodipodi:docname="drawing-3.svg"
   xmlns:inkscape="http://www.inkscape.org/namespaces/inkscape"
   xmlns:sodipodi="http://sodipodi.sourceforge.net/DTD/sodipodi-0.dtd"
   xmlns:xlink="http://www.w3.org/1999/xlink"
   xmlns="http://www.w3.org/2000/svg"
   xmlns:svg="http://www.w3.org/2000/svg">
  <sodipodi:namedview
     id="namedview7"
     pagecolor="#ffffff"
     bordercolor="#000000"
     borderopacity="0.25"
     inkscape:showpageshadow="2"
     inkscape:pageopacity="0.0"
     inkscape:pagecheckerboard="0"
     inkscape:deskcolor="#d1d1d1"
     inkscape:document-units="mm"
     showgrid="false"
     inkscape:zoom="0.77593294"
     inkscape:cx="250.02161"
     inkscape:cy="555.46037"
     inkscape:window-width="1900"
     inkscape:window-height="981"
     inkscape:window-x="10"
     inkscape:window-y="45"
     inkscape:window-maximized="1"
     inkscape:current-layer="layer1" />
  <defs
     id="defs2">
    <linearGradient
       id="linearGradient1438"
       inkscape:swatch="solid">
      <stop
         style="stop-color:#000000;stop-opacity:1;"
         offset="0"
         id="stop1436" />
    </linearGradient>
    <linearGradient
       id="linearGradient949"
       inkscape:swatch="solid">
      <stop
         style="stop-color:#000000;stop-opacity:1;"
         offset="0"
         id="stop947" />
    </linearGradient>
    <linearGradient
       inkscape:collect="always"
       xlink:href="#linearGradient1438"
       id="linearGradient1440"
       x1="50.30406"
       y1="149.22132"
       x2="205.90111"
       y2="149.22132"
       gradientUnits="userSpaceOnUse" />
  </defs>
  <g
     inkscape:label="Layer 1"
     inkscape:groupmode="layer"
     id="layer1">
    <path
       style="fill:#000000;fill-opacity:1;fill-rule:evenodd;stroke:url(#linearGradient1440);stroke-width:2.487;stroke-linecap:round;stroke-linejoin:round;stroke-dasharray:none;stroke-opacity:0.717694;paint-order:stroke fill markers"
       d="m 142.56479,153.1595 c -7.55263,-8.49434 -9.82693,5.13248 -14.75997,1.48211 -4.93305,-3.65037 -6.34311,-2.80125 -9.34044,1.06842 -2.99733,3.86967 -8.54053,-2.39801 -10.73615,3.0166 -2.19562,5.41461 2.09495,9.17784 -1.50575,11.30008 -3.6007,2.12224 -8.528372,2.02878 -8.500125,8.70018 0.02825,6.6714 2.550445,6.75825 0.372224,9.7028 -2.178219,2.94456 -5.672738,4.85151 -3.863858,10.01815 1.808882,5.16664 9.245269,0.71443 10.173249,8.13212 0.92797,7.4177 3.14335,12.51996 7.93745,11.01924 4.79409,-1.50071 9.19363,-5.35547 11.97014,1.99734 2.77651,7.35281 5.40054,9.91123 11.3346,4.24221 5.93405,-5.66902 8.94853,-12.06144 19.26148,-7.46359 10.31296,4.59786 15.31386,2.10116 16.09427,-10.34643 0.7804,-12.44759 1.47713,-17.75545 13.79195,-16.14872 12.31482,1.60674 17.07834,-6.39922 11.54273,-16.90001 -5.53562,-10.50078 -4.88282,-17.46088 5.3857,-26.02601 10.26852,-8.56513 -0.90291,-17.118 -6.69583,-21.5777 -5.79292,-4.45969 -8.21673,-9.60718 -7.01869,-22.86077 1.19803,-13.25359 -4.33034,-17.155797 -16.135,-13.009287 -11.80465,4.146513 -15.42153,-0.150294 -21.39042,-10.549707 -5.96889,-10.399413 -17.31896,-2.827734 -25.32638,3.045645 -8.00741,5.87338 -9.75926,3.821097 -21.00665,-7.500506 -11.247395,-11.3216 -14.530409,3.646326 -20.821573,9.225333 -6.291165,5.579007 -20.807868,-1.628555 -17.935824,13.05837 2.872045,14.686932 -6.278379,31.282192 -6.278379,31.282192 -0.564123,-0.68888 -4.841682,-23.93692 5.774147,-26.02655 10.615827,-2.089625 13.522973,-6.939916 12.318563,-15.766866 -1.204407,-8.826952 7.520255,-16.59083 11.79521,-10.655752 4.274955,5.935078 11.813636,6.478521 17.200456,1.253643 5.38681,-5.224875 17.41867,-8.653354 25.16367,0.67273 7.745,9.326086 17.60681,11.808052 22.32971,6.123861 4.72291,-5.684192 17.22322,-2.667696 19.34205,2.9406 2.11884,5.608296 -3.96469,14.812794 6.71963,13.645554 10.68432,-1.167235 21.66923,0.99406 21.72079,12.19097 0.0516,11.19691 -14.61994,15.45871 -9.79858,25.67766 4.82136,10.21896 21.4666,21.35626 10.40155,32.21543 -11.06506,10.85917 -14.54907,1.1609 -16.91969,14.52803 -2.37061,13.36713 1.22593,16.05806 -11.57813,22.737 -12.80405,6.67893 -15.36012,-6.18473 -21.4555,6.61505 -6.09538,12.79979 -9.40032,12.40392 -18.79487,4.94465 -9.39455,-7.45926 -3.28629,5.32206 -14.63958,8.29912 -11.35329,2.97707 0.73579,-5.61197 -5.37732,-13.16907 -6.1131,-7.5571 -12.66234,8.68631 -15.027123,-4.21156 -2.364788,-12.89787 8.171313,-8.16107 0.493686,-16.54455 -7.677626,-8.38347 -1.944672,-10.35135 2.662547,-14.32717 4.60722,-3.97582 -0.28444,-8.69923 1.36464,-14.63596 1.64907,-5.93674 6.29603,0.18423 10.55129,-1.45276 4.25527,-1.63698 -2.43328,-8.71349 2.19713,-10.37671 4.6304,-1.66322 3.80916,5.69841 8.03048,4.01906 4.22132,-1.67935 2.73772,-4.55723 4.95255,-6.17387 2.21484,-1.61664 8.03328,4.74142 10.12574,4.74142 2.09246,0 3.8982,-2.17202 3.8982,-2.17202 z"
       id="path1056"
       sodipodi:nodetypes="csssssssssssssssssssssssssssssssssssssssssssssssssssc" />
  </g>
</svg>
